<svg xmlns="http://www.w3.org/2000/svg" width="300" height="350" viewBox="0 0 75 90" style="enable-background:new 0 0 75 90"><style>.mind-circle-text{font-family:&apos;Verdana&apos;,sans-serif;font-size:14px;font-weight:700;fill:#fff}</style><path fill="#a0d2a1" d="M11.809,12.75c-5.082,7.905,4.5,13.5,4.5,13.5c5.25,8.25,11.25,8.25,15,6c4.314-2.588,6-8.25,6-14.25 c0-5.303,1.5-10.5,1.5-10.5S18.559,2.25,11.809,12.75z"/><path fill="#8cc78c" d="M16.66,25.947c0,0,5.027-13.93,22.309-18.143l-1.628,15.128 C37.34,22.93,30.208,44.713,16.66,25.947z"/><path fill="#a0d2a1" d="M67.091,30.194c-4.235-8.389-13.917-2.969-13.917-2.969C43.4,27.566,40.358,32.737,40.394,37.11 c0.043,5.031,4.067,9.356,9.239,12.398c4.571,2.69,8.289,6.618,8.289,6.618S72.716,41.337,67.091,30.194z"/><path fill="#8cc78c" d="M53.257,27.682c0,0,9.457,11.398,4.322,28.429l-12.212-9.075 C45.367,47.035,30.212,29.84,53.257,27.682z"/><path fill="#a0d2a1" d="M24.332,70.223c9.352,0.926,9.971-10.153,9.971-10.153c4.956-8.43,2.224-13.772-1.487-16.087 c-4.269-2.663-10.077-1.586-15.419,1.145C12.675,47.543,7.366,48.574,7.366,48.574S11.665,69.01,24.332,70.223z"/><path fill="#8cc78c" d="M33.874,59.896c0,0-14.692,1.867-26.311-11.603l14.21-5.438 C21.773,42.856,44.414,39.29,33.874,59.896z"/><text x="50%" y="85" class="mind-circle-text" text-anchor="middle">MIND CIRCLE</text></svg>