<svg xmlns="http://www.w3.org/2000/svg" x="0px" y="0px" width="144" height="144" viewBox="0,0,256,256"
style="fill:#000000;">
<g transform=""><g fill="none" fill-rule="nonzero" stroke="none" stroke-width="1" stroke-linecap="butt" stroke-linejoin="miter" stroke-miterlimit="10" stroke-dasharray="" stroke-dashoffset="0" font-family="none" font-weight="none" font-size="none" text-anchor="none" style="mix-blend-mode: normal"><g transform="scale(5.33333,5.33333)"><path d="M34.349,21c0,0 -0.625,-8.5 -8.5,-7.75c0,0 -4.625,0.5 -6.25,4.125c0,0 0.125,1.625 1.75,2.625l-4.563,-2.394c-3.019,-1.584 -6.733,-1.494 -9.496,0.503c-0.972,0.703 -1.879,1.641 -2.566,2.891c0,0 -1.5,3.25 0.875,6.125c0,0 -7.625,-6.375 -0.125,-13.25c7.5,-6.875 12.375,1.125 12.375,1.125c0,0 2.625,-9 11.375,-6c8.75,3 5.125,12 5.125,12z" fill="#ff1744"></path><path d="M44.566,12.348l0.842,-0.525l-2.118,-3.395l-29.78,18.582c-0.427,-0.487 -0.901,-0.927 -1.427,-1.299c-1.717,-1.212 -3.712,-1.613 -5.623,-1.129c-3.641,0.927 -5.826,4.871 -5.11,8.991c-0.232,0.426 -0.376,0.907 -0.376,1.427c0,1.458 1.041,2.671 2.42,2.942c0.438,0.507 0.927,0.964 1.47,1.348c1.242,0.877 2.63,1.329 4.025,1.329c0.533,0 1.069,-0.066 1.598,-0.2c1.614,-0.411 2.938,-1.42 3.855,-2.77c-0.804,-0.582 -1.643,-1.219 -2.402,-1.808c-0.521,0.82 -1.265,1.433 -2.192,1.669c-1.044,0.268 -2.164,0.027 -3.153,-0.672c-0.056,-0.039 -0.101,-0.092 -0.156,-0.134c0.336,-0.484 0.535,-1.07 0.535,-1.704c0,-1.569 -1.209,-2.842 -2.744,-2.974c-0.01,-2.178 1.141,-4.071 2.97,-4.536c0.278,-0.071 0.562,-0.105 0.847,-0.105c0.784,0 1.581,0.265 2.307,0.777c1.062,0.749 1.841,1.923 2.191,3.303c0.21,0.825 0.226,1.638 0.113,2.398c0.819,0.641 1.734,1.342 2.593,1.972c0.544,-1.549 0.655,-3.325 0.202,-5.108c-0.016,-0.061 -0.037,-0.119 -0.054,-0.18l20.827,-12.996l2.479,3.961l8.333,-5.214zM43.097,17.301l-1.664,1.109l-0.947,-1.42l-1.484,0.989l-1.109,-1.664l1.484,-0.989l-1.053,-1.58l1.664,-1.109l1.053,1.58l1.516,-1.011l1.109,1.664l-1.516,1.011z" fill="#212121"></path><path d="M6.474,28.75c0,0 5.25,4.75 15.875,7c0,0 8.875,-6 11.75,-13.375c0,0 -3.125,11.125 -10.625,18.375c0,0 -10.5,-4.25 -17,-12z" fill="#ff1744"></path></g></g><g fill="#ee0a0a" fill-rule="nonzero" stroke="none" stroke-width="1" stroke-linecap="butt" stroke-linejoin="miter" stroke-miterlimit="10" stroke-dasharray="" stroke-dashoffset="0" font-family="none" font-weight="none" font-size="none" text-anchor="none" style="mix-blend-mode: normal"><g><path d="M41.96667,242.195l0.59,-13.4l-0.13,-0.02l-8.12,22.46h-4.09l-8.08,-22.38l-0.12,0.02l0.58,13.32v4.77l3.25,0.62v3.65h-12.56v-3.65l3.23,-0.62v-21.77l-3.23,-0.63v-3.67h3.23h7.93l7.73,22.36h0.13l7.79,-22.36h11.21v3.67l-3.25,0.63v21.77l3.25,0.62v3.65h-12.56v-3.65l3.22,-0.62zM53.42667,251.235v-3.65l2.94,-0.62v-13.98l-3.25,-0.63v-3.66h9.33v18.27l2.92,0.62v3.65zM62.44667,218.735v4.56h-6.08v-4.56zM67.03667,251.235v-3.65l2.91,-0.62v-13.98l-3.23,-0.63v-3.66h8.9l0.27,3.22c0.75333,-1.14667 1.67667,-2.04 2.77,-2.68c1.1,-0.64 2.33,-0.96 3.69,-0.96v0c2.28,0 4.05667,0.71333 5.33,2.14c1.28,1.43333 1.92,3.67667 1.92,6.73v0v9.82l2.92,0.62v3.65h-11.63v-3.65l2.61,-0.62v-9.8c0,-1.51333 -0.30667,-2.58333 -0.92,-3.21c-0.61333,-0.63333 -1.53667,-0.95 -2.77,-0.95v0c-0.80667,0 -1.53,0.16333 -2.17,0.49c-0.64,0.32667 -1.17333,0.78667 -1.6,1.38v0v12.09l2.46,0.62v3.65zM109.36667,251.235l-0.46,-2.75c-0.70667,1.04 -1.54333,1.83 -2.51,2.37c-0.96667,0.54 -2.06667,0.81 -3.3,0.81v0c-2.78,0 -4.93667,-1.01333 -6.47,-3.04c-1.53333,-2.02667 -2.3,-4.70667 -2.3,-8.04v0v-0.44c0,-3.55333 0.77,-6.42 2.31,-8.6c1.54,-2.18 3.70667,-3.27 6.5,-3.27v0c1.12667,0 2.14,0.24667 3.04,0.74c0.90667,0.49333 1.7,1.19 2.38,2.09v0v-8.08l-3.25,-0.63v-3.66h3.25h6.08v28.23l2.92,0.62v3.65zM100.40667,240.145v0.44c0,1.97333 0.33,3.52667 0.99,4.66c0.66,1.13333 1.74,1.7 3.24,1.7v0c0.88667,0 1.65667,-0.18333 2.31,-0.55c0.65333,-0.36 1.19,-0.88 1.61,-1.56v0v-9.56c-0.42,-0.72 -0.95333,-1.28 -1.6,-1.68c-0.64,-0.39333 -1.4,-0.59 -2.28,-0.59v0c-1.48667,0 -2.57,0.66 -3.25,1.98c-0.68,1.32 -1.02,3.04 -1.02,5.16zM154.65667,225.125v6h-4.52l-0.62,-4.04c-0.6,-0.59333 -1.35333,-1.06667 -2.26,-1.42c-0.91333,-0.34667 -1.98667,-0.52 -3.22,-0.52v0c-2.64,0 -4.67333,0.96 -6.1,2.88c-1.42,1.91333 -2.13,4.41333 -2.13,7.5v0v1.06c0,3.08667 0.70667,5.59333 2.12,7.52c1.42,1.93333 3.42,2.9 6,2.9v0c1.19333,0 2.28667,-0.17333 3.28,-0.52c0.99333,-0.34667 1.76333,-0.82 2.31,-1.42v0l0.62,-4.04h4.52v6c-1.22,1.41333 -2.78,2.54 -4.68,3.38c-1.89333,0.84 -4.01333,1.26 -6.36,1.26v0c-4.06667,0 -7.4,-1.40667 -10,-4.22c-2.6,-2.82 -3.9,-6.44 -3.9,-10.86v0v-1.02c0,-4.4 1.29333,-8.01667 3.88,-10.85c2.58,-2.83333 5.92,-4.25 10.02,-4.25v0c2.34667,0 4.46333,0.42667 6.35,1.28c1.89333,0.85333 3.45667,1.98 4.69,3.38zM157.40667,251.235v-3.65l2.94,-0.62v-13.98l-3.25,-0.63v-3.66h9.33v18.27l2.92,0.62v3.65zM166.42667,218.735v4.56h-6.08v-4.56zM171.80667,251.235v-3.65l2.91,-0.62v-13.98l-3.22,-0.63v-3.66h8.89l0.27,3.29c0.52667,-1.16667 1.20667,-2.07667 2.04,-2.73c0.83333,-0.65333 1.8,-0.98 2.9,-0.98v0c0.32,0 0.65667,0.02333 1.01,0.07c0.35333,0.04667 0.65,0.10667 0.89,0.18v0l-0.65,5.54l-2.5,-0.06c-0.88667,0 -1.62333,0.17333 -2.21,0.52c-0.58,0.34667 -1.02333,0.84 -1.33,1.48v0v10.96l2.91,0.62v3.65zM199.49667,247.005v0c1.08,0 1.94667,-0.31667 2.6,-0.95c0.65333,-0.63333 0.98,-1.47667 0.98,-2.53v0h5.5l0.06,0.12c0.05333,2.28 -0.8,4.18667 -2.56,5.72c-1.76667,1.53333 -3.96,2.3 -6.58,2.3v0c-3.36667,0 -5.96,-1.06 -7.78,-3.18c-1.81333,-2.12667 -2.72,-4.85667 -2.72,-8.19v0v-0.63c0,-3.31333 0.93333,-6.04 2.8,-8.18c1.86667,-2.14 4.53,-3.21 7.99,-3.21v0c1.82,0 3.45,0.27 4.89,0.81c1.44667,0.54 2.65,1.30333 3.61,2.29v0l0.08,6.02h-4.94l-1,-3.52c-0.30667,-0.26 -0.68,-0.47667 -1.12,-0.65c-0.44667,-0.17333 -0.95333,-0.26 -1.52,-0.26v0c-1.72667,0 -2.94333,0.62333 -3.65,1.87c-0.70667,1.25333 -1.06,2.86333 -1.06,4.83v0v0.63c0,2.01333 0.32667,3.63333 0.98,4.86c0.65333,1.23333 1.8,1.85 3.44,1.85zM213.98667,223.025l-3.25,-0.63v-3.66h9.34v28.23l2.94,0.62v3.65h-11.96v-3.65l2.93,-0.62zM235.78667,251.665v0c-3.25333,0 -5.85333,-1.04 -7.8,-3.12c-1.94,-2.08667 -2.91,-4.73333 -2.91,-7.94v0v-0.83c0,-3.34667 0.92,-6.10333 2.76,-8.27c1.84,-2.16667 4.30667,-3.24333 7.4,-3.23v0c3.04667,0 5.41,0.91667 7.09,2.75c1.68,1.83333 2.52,4.31333 2.52,7.44v0v3.31h-13.46l-0.04,0.12c0.11333,1.48667 0.61,2.71 1.49,3.67c0.88,0.96 2.07667,1.44 3.59,1.44v0c1.34667,0 2.46667,-0.13667 3.36,-0.41c0.88667,-0.26667 1.85667,-0.69333 2.91,-1.28v0l1.65,3.75c-0.93333,0.73333 -2.14,1.35 -3.62,1.85c-1.47333,0.5 -3.12,0.75 -4.94,0.75zM235.23667,232.965v0c-1.12,0 -2.00667,0.43 -2.66,1.29c-0.65333,0.86 -1.05667,1.99 -1.21,3.39v0l0.06,0.11h7.46v-0.54c0,-1.29333 -0.30333,-2.32667 -0.91,-3.1c-0.6,-0.76667 -1.51333,-1.15 -2.74,-1.15z"></path></g></g></g>
</svg>